<?xml version="1.0" standalone="no"?>
<!DOCTYPE svg PUBLIC "-//W3C//DTD SVG 20010904//EN"
 "http://www.w3.org/TR/2001/REC-SVG-20010904/DTD/svg10.dtd">
<svg version="1.0" xmlns="http://www.w3.org/2000/svg"
 width="71.000000pt" height="115.000000pt" viewBox="0 0 71.000000 115.000000"
 preserveAspectRatio="xMidYMid meet">

<g transform="translate(0.000000,115.000000) scale(0.100000,-0.100000)"
fill="#000000" stroke="none">
<path d="M272 1135 c-26 -11 -39 -12 -54 -4 -12 6 -45 9 -75 7 -66 -6 -110
-43 -120 -101 -5 -33 0 -46 45 -113 38 -55 53 -88 58 -124 11 -82 54 -95 54
-17 -1 54 -27 110 -80 170 -55 62 -58 97 -12 139 26 23 42 28 82 28 54 0 61
-7 30 -35 -24 -22 -26 -53 -3 -62 11 -4 25 5 46 31 29 36 30 36 50 19 19 -18
20 -17 8 4 -9 19 -8 24 8 33 24 12 91 13 110 1 13 -8 13 -12 0 -27 -13 -16
-12 -16 9 -5 19 10 26 10 39 -1 14 -11 15 -10 9 8 -8 25 13 34 82 34 35 0 49
-6 73 -29 43 -43 38 -74 -21 -151 -61 -78 -74 -121 -67 -223 5 -70 3 -78 -11
-71 -154 64 -361 58 -378 -12 -3 -13 -3 -31 0 -40 4 -10 -1 -22 -11 -29 -15
-11 -15 -18 -5 -67 16 -72 34 -97 65 -91 30 6 44 -22 19 -36 -15 -9 -13 -10 8
-11 19 0 31 -9 44 -35 25 -47 73 -75 125 -75 50 0 112 29 135 64 18 28 7 36
-15 10 -21 -25 -67 -45 -111 -47 -35 -1 -45 4 -74 36 -19 20 -34 41 -34 46 0
6 17 15 38 21 20 5 47 18 60 28 23 18 25 17 80 -10 31 -15 82 -30 112 -34 l55
-6 -35 22 c-19 13 -54 40 -77 61 -43 40 -70 48 -90 28 -8 -8 -17 -8 -31 0 -33
18 -50 13 -91 -25 -47 -42 -44 -45 -85 90 -32 103 -31 106 56 106 76 0 147
-16 236 -52 40 -17 75 -28 78 -26 2 3 0 29 -6 58 -26 136 -8 244 53 316 55 65
55 124 2 174 -32 30 -115 39 -166 18 -31 -14 -38 -13 -69 3 -41 22 -102 24
-148 4z"/>
<path d="M193 881 c14 -18 28 -50 33 -83 l8 -53 4 55 3 56 54 0 54 1 9 -51 10
-51 1 54 c1 44 4 52 17 47 9 -3 33 -6 54 -6 l38 0 7 -52 c11 -82 27 -94 19
-15 -4 46 -3 72 6 82 10 12 5 13 -39 8 -39 -4 -57 -1 -83 14 -28 16 -37 17
-58 6 -34 -17 -89 -16 -124 2 -40 21 -41 19 -13 -14z"/>
<path fill="#be1e2d" d="M543 280 c-20 -31 -87 -60 -139 -60 -36 0 -59 8 -97 32 -55 35 -67
30 -67 -33 0 -58 18 -73 96 -77 58 -3 76 0 114 20 44 24 115 108 108 128 -2 6
-9 1 -15 -10z"/>
<path fill="#be1e2d" d="M27 263 c-15 -2 -27 -9 -27 -14 0 -15 81 -49 118 -49 l34 0 -30 -25
c-34 -28 -116 -155 -101 -155 24 0 90 43 114 74 14 19 39 39 55 46 16 6 30 17
33 23 7 22 -13 76 -33 87 -22 12 -123 20 -163 13z"/>
</g>
</svg>
